HIERARCHY
ROOT Hips
{
	OFFSET 0.000000 100.481300 0.000000
	CHANNELS 6 Xposition Yposition Zposition Xrotation Yrotation Zrotation 
	JOINT Spine
	{
		OFFSET -0.279200 12.230698 -2.892100
		CHANNELS 3 Xrotation Yrotation Zrotation
		JOINT Spine1
		{
			OFFSET -0.232667 10.192268 -1.242267
			CHANNELS 3 Xrotation Yrotation Zrotation
			JOINT Spine1_split
			{
				OFFSET -0.232667 10.192268 -1.242267
				CHANNELS 3 Xrotation Yrotation Zrotation
				JOINT Spine2
				{
					OFFSET -0.232667 10.192268 -1.242267
					CHANNELS 3 Xrotation Yrotation Zrotation
					JOINT Neck
					{
						OFFSET -0.418800 17.814194 8.416900
						CHANNELS 3 Xrotation Yrotation Zrotation
						JOINT Head
						{
							OFFSET 0.000000 7.031097 3.806800
							CHANNELS 3 Xrotation Yrotation Zrotation
							JOINT HeadTop_End
							{
								OFFSET 0.000000 24.646606 12.978600
								CHANNELS 3 Xrotation Yrotation Zrotation
								End Site
								{
									OFFSET 0.000000 0.000000 0.000000
								}
							}
						}
					}
					JOINT LeftShoulder
					{
						OFFSET 8.476499 7.247704 -3.868750
						CHANNELS 3 Xrotation Yrotation Zrotation
						JOINT LeftShoulder_split
						{
							OFFSET 8.476499 7.247704 -3.868750
							CHANNELS 3 Xrotation Yrotation Zrotation
							JOINT LeftArm
							{
								OFFSET 9.308998 -2.777710 0.208600
								CHANNELS 3 Xrotation Yrotation Zrotation
								JOINT LeftForeArm
								{
									OFFSET 29.972298 0.000000 0.000000
									CHANNELS 3 Xrotation Yrotation Zrotation
									JOINT LeftHand
									{
										OFFSET 26.026505 0.000000 0.000000
										CHANNELS 3 Xrotation Yrotation Zrotation
										JOINT LeftHandThumb1
										{
											OFFSET 12.240501 -7.147949 9.207150
											CHANNELS 3 Xrotation Yrotation Zrotation
											JOINT LeftHandThumb2
											{
												OFFSET 4.138618 -2.389435 2.389433
												CHANNELS 3 Xrotation Yrotation Zrotation
												JOINT LeftHandThumb3
												{
													OFFSET 2.726913 -1.574387 1.574386
													CHANNELS 3 Xrotation Yrotation Zrotation
													JOINT LeftHandThumb4
													{
														OFFSET 3.941010 -2.275345 2.275342
														CHANNELS 3 Xrotation Yrotation Zrotation
														End Site
														{
															OFFSET 0.000000 0.000000 0.000000
														}
													}
												}
											}
										}
										JOINT LeftHandIndex1
										{
											OFFSET 24.424698 -1.985611 5.953459
											CHANNELS 3 Xrotation Yrotation Zrotation
											JOINT LeftHandIndex2
											{
												OFFSET 6.426697 0.000000 0.000000
												CHANNELS 3 Xrotation Yrotation Zrotation
												JOINT LeftHandIndex3
												{
													OFFSET 5.337898 0.000000 0.000000
													CHANNELS 3 Xrotation Yrotation Zrotation
													JOINT LeftHandIndex4
													{
														OFFSET 4.409401 0.000000 0.000000
														CHANNELS 3 Xrotation Yrotation Zrotation
														End Site
														{
															OFFSET 0.000000 0.000000 0.000000
														}
													}
												}
											}
										}
										JOINT LeftHandMiddle1
										{
											OFFSET 23.810104 0.000000 0.000000
											CHANNELS 3 Xrotation Yrotation Zrotation
											JOINT LeftHandMiddle2
											{
												OFFSET 7.176498 0.000000 0.000000
												CHANNELS 3 Xrotation Yrotation Zrotation
												JOINT LeftHandMiddle3
												{
													OFFSET 6.774902 0.000000 0.000000
													CHANNELS 3 Xrotation Yrotation Zrotation
													JOINT LeftHandMiddle4
													{
														OFFSET 5.403328 0.000000 0.000000
														CHANNELS 3 Xrotation Yrotation Zrotation
														End Site
														{
															OFFSET 0.000000 0.000000 0.000000
														}
													}
												}
											}
										}
										JOINT LeftHandRing1
										{
											OFFSET 22.908401 -0.839279 -6.020567
											CHANNELS 3 Xrotation Yrotation Zrotation
											JOINT LeftHandRing2
											{
												OFFSET 6.337502 0.000000 0.000000
												CHANNELS 3 Xrotation Yrotation Zrotation
												JOINT LeftHandRing3
												{
													OFFSET 5.779297 0.000000 0.000000
													CHANNELS 3 Xrotation Yrotation Zrotation
													JOINT LeftHandRing4
													{
														OFFSET 4.965698 0.000000 0.000000
														CHANNELS 3 Xrotation Yrotation Zrotation
														End Site
														{
															OFFSET 0.000000 0.000000 0.000000
														}
													}
												}
											}
										}
										JOINT LeftHandPinky1
										{
											OFFSET 20.037003 -1.530319 -10.950146
											CHANNELS 3 Xrotation Yrotation Zrotation
											JOINT LeftHandPinky2
											{
												OFFSET 5.254700 0.000000 0.000000
												CHANNELS 3 Xrotation Yrotation Zrotation
												JOINT LeftHandPinky3
												{
													OFFSET 4.810204 0.000000 0.000000
													CHANNELS 3 Xrotation Yrotation Zrotation
													JOINT LeftHandPinky4
													{
														OFFSET 3.647202 0.000000 0.000000
														CHANNELS 3 Xrotation Yrotation Zrotation
														End Site
														{
															OFFSET 0.000000 0.000000 0.000000
														}
													}
												}
											}
										}
									}
								}
							}
						}
					}
					JOINT RightShoulder
					{
						OFFSET -7.570500 7.247704 -3.868750
						CHANNELS 3 Xrotation Yrotation Zrotation
						JOINT RightShoulder_split
						{
							OFFSET -7.570500 7.247704 -3.868750
							CHANNELS 3 Xrotation Yrotation Zrotation
							JOINT RightArm
							{
								OFFSET -9.308998 -2.777710 0.208500
								CHANNELS 3 Xrotation Yrotation Zrotation
								JOINT RightForeArm
								{
									OFFSET -29.972300 0.000000 0.000000
									CHANNELS 3 Xrotation Yrotation Zrotation
									JOINT RightHand
									{
										OFFSET -26.026505 0.000000 0.000000
										CHANNELS 3 Xrotation Yrotation Zrotation
										JOINT RightHandThumb1
										{
											OFFSET -12.240601 -7.148026 9.207092
											CHANNELS 3 Xrotation Yrotation Zrotation
											JOINT RightHandThumb2
											{
												OFFSET -4.138618 -2.389435 2.389433
												CHANNELS 3 Xrotation Yrotation Zrotation
												JOINT RightHandThumb3
												{
													OFFSET -2.726974 -1.574417 1.574421
													CHANNELS 3 Xrotation Yrotation Zrotation
													JOINT RightHandThumb4
													{
														OFFSET -3.941010 -2.275345 2.275343
														CHANNELS 3 Xrotation Yrotation Zrotation
														End Site
														{
															OFFSET 0.000000 0.000000 0.000000
														}
													}
												}
											}
										}
										JOINT RightHandIndex1
										{
											OFFSET -24.424698 -1.985657 5.953444
											CHANNELS 3 Xrotation Yrotation Zrotation
											JOINT RightHandIndex2
											{
												OFFSET -6.426697 0.000000 0.000000
												CHANNELS 3 Xrotation Yrotation Zrotation
												JOINT RightHandIndex3
												{
													OFFSET -5.337898 0.000000 0.000000
													CHANNELS 3 Xrotation Yrotation Zrotation
													JOINT RightHandIndex4
													{
														OFFSET -4.409401 0.000000 0.000000
														CHANNELS 3 Xrotation Yrotation Zrotation
														End Site
														{
															OFFSET 0.000000 0.000000 0.000000
														}
													}
												}
											}
										}
										JOINT RightHandMiddle1
										{
											OFFSET -23.810097 0.000000 0.000000
											CHANNELS 3 Xrotation Yrotation Zrotation
											JOINT RightHandMiddle2
											{
												OFFSET -7.176498 0.000000 0.000000
												CHANNELS 3 Xrotation Yrotation Zrotation
												JOINT RightHandMiddle3
												{
													OFFSET -6.774902 0.000000 0.000000
													CHANNELS 3 Xrotation Yrotation Zrotation
													JOINT RightHandMiddle4
													{
														OFFSET -5.403328 0.000000 0.000000
														CHANNELS 3 Xrotation Yrotation Zrotation
														End Site
														{
															OFFSET 0.000000 0.000000 0.000000
														}
													}
												}
											}
										}
										JOINT RightHandRing1
										{
											OFFSET -22.908302 -0.839325 -6.020576
											CHANNELS 3 Xrotation Yrotation Zrotation
											JOINT RightHandRing2
											{
												OFFSET -6.337502 0.000000 0.000000
												CHANNELS 3 Xrotation Yrotation Zrotation
												JOINT RightHandRing3
												{
													OFFSET -5.779297 0.000000 0.000000
													CHANNELS 3 Xrotation Yrotation Zrotation
													JOINT RightHandRing4
													{
														OFFSET -4.965698 0.000000 0.000000
														CHANNELS 3 Xrotation Yrotation Zrotation
														End Site
														{
															OFFSET 0.000000 0.000000 0.000000
														}
													}
												}
											}
										}
										JOINT RightHandPinky1
										{
											OFFSET -20.037003 -1.530334 -10.950259
											CHANNELS 3 Xrotation Yrotation Zrotation
											JOINT RightHandPinky2
											{
												OFFSET -5.254700 0.000000 0.000000
												CHANNELS 3 Xrotation Yrotation Zrotation
												JOINT RightHandPinky3
												{
													OFFSET -4.810204 0.000000 0.000000
													CHANNELS 3 Xrotation Yrotation Zrotation
													JOINT RightHandPinky4
													{
														OFFSET -3.647202 0.000000 0.000000
														CHANNELS 3 Xrotation Yrotation Zrotation
														End Site
														{
															OFFSET 0.000000 0.000000 0.000000
														}
													}
												}
											}
										}
									}
								}
							}
						}
					}
				}
			}
		}
	}
	JOINT LeftUpLeg
	{
		OFFSET 15.427100 -6.655098 0.678600
		CHANNELS 3 Xrotation Yrotation Zrotation
		JOINT LeftLeg
		{
			OFFSET 4.081073 -39.591068 13.024000
			CHANNELS 3 Xrotation Yrotation Zrotation
			JOINT LeftFoot
			{
				OFFSET -4.081074 -37.707932 -15.979700
				CHANNELS 3 Xrotation Yrotation Zrotation
				JOINT LeftToeBase
				{
					OFFSET 5.346399 -15.068900 20.645000
					CHANNELS 3 Xrotation Yrotation Zrotation
					JOINT LeftToe_End
					{
						OFFSET 2.754700 0.931300 11.300900
						CHANNELS 3 Xrotation Yrotation Zrotation
						End Site
						{
							OFFSET 0.000000 0.000000 0.000000
						}
					}
				}
			}
		}
	}
	JOINT RightUpLeg
	{
		OFFSET -15.569500 -6.655098 0.678600
		CHANNELS 3 Xrotation Yrotation Zrotation
		JOINT RightLeg
		{
			OFFSET -4.081825 -39.591045 13.023800
			CHANNELS 3 Xrotation Yrotation Zrotation
			JOINT RightFoot
			{
				OFFSET 4.081824 -37.707954 -15.979600
				CHANNELS 3 Xrotation Yrotation Zrotation
				JOINT RightToeBase
				{
					OFFSET -5.346400 -15.068900 20.645000
					CHANNELS 3 Xrotation Yrotation Zrotation
					JOINT RightToe_End
					{
						OFFSET -2.754700 0.931300 11.300900
						CHANNELS 3 Xrotation Yrotation Zrotation
						End Site
						{
							OFFSET 0.000000 0.000000 0.000000
						}
					}
				}
			}
		}
	}
}
MOTION
Frames: 4
Frame Time: 0.016667
-0.316141 93.479553 -6.763363 1.019432 3.180851 -0.275941 19.034947 -0.962155 -1.460572 1.223055 -0.119062 0.413204 0.000000 0.000000 0.000000 1.222980 -0.102590 0.414475 17.491910 0.957045 1.398485 10.813760 -0.678495 3.594865 0.000001 0.000000 -0.000000 11.672663 -37.520606 -0.316566 0.000000 0.000000 0.000000 11.271317 19.967064 -51.862931 -0.000000 -34.690790 0.000004 2.574873 -0.956504 2.461512 -1.708902 11.916060 7.382936 4.613902 16.205073 1.361385 0.155771 9.814994 3.327215 0.000000 0.000001 0.000001 0.562436 2.730254 -23.275999 0.897606 3.404362 -29.533564 0.246927 1.830952 -15.360366 -0.000003 0.000001 -0.000002 0.723099 3.076873 -26.493834 0.834077 3.289884 -28.445293 0.792224 3.211558 -27.707455 0.000000 -0.000001 0.000004 0.759396 3.148824 -27.218857 1.519202 4.319081 -38.743019 1.377866 4.137250 -36.826143 0.000001 0.000001 0.000000 2.755441 6.847002 -28.124385 1.536460 0.254063 -39.161095 0.904540 3.416568 -29.650159 -0.000001 -0.000003 -0.000000 0.491475 -2.548974 6.180814 0.000000 0.000000 0.000000 3.745289 20.212621 34.029454 -0.000002 9.536107 0.000009 23.378754 19.150928 -10.871797 -1.994358 -12.184634 -7.943391 5.444760 -17.292019 -0.860477 -0.502641 -8.507752 -2.994145 0.000004 0.000001 0.000001 0.461131 -2.494397 20.944391 1.026106 -3.640537 31.472241 0.509402 -2.616914 22.026981 0.000001 -0.000003 0.000002 0.535718 -2.680964 22.596327 1.057792 -3.691692 31.967638 1.049727 -3.678780 31.842253 -0.000002 0.000004 -0.000002 0.433995 -2.422391 20.311914 1.427580 -4.225570 37.320058 0.727759 -3.101833 26.401879 0.000003 0.000001 -0.000002 0.161432 -1.492509 12.345141 1.468710 -4.278873 37.875001 0.858325 -3.351620 28.721536 0.000001 0.000001 -0.000001 -12.505874 9.469416 5.829153 21.936599 -1.794236 1.759555 -10.679043 0.825105 -5.018905 -0.000047 -0.000000 0.000005 0.000000 0.000001 -0.000000 -5.749434 -6.002794 -6.935102 20.281789 -8.334292 7.611559 -13.812177 -17.531000 1.486620 -0.343498 -0.000007 -0.000000 -0.000000 -0.000000 -0.000000 
-0.301089 93.521599 -6.682246 0.970079 3.150950 -0.276491 18.768612 -0.951122 -1.461179 1.229637 -0.117464 0.406142 0.000000 0.000000 0.000000 1.229537 -0.101461 0.407323 17.464857 0.625444 1.445074 10.818746 -1.791893 4.166017 -0.000000 0.000000 -0.000000 11.432079 -37.413406 -0.403145 0.000000 0.000000 0.000000 11.910116 20.221622 -52.024533 -0.000004 -34.586975 -0.000015 1.537126 -1.822071 2.928771 -1.708904 11.916057 7.382933 4.613907 16.205068 1.361383 0.155773 9.815001 3.327216 -0.000000 -0.000001 -0.000001 0.543300 2.685385 -22.870962 0.876729 3.367329 -29.180211 0.227784 1.759782 -14.749109 -0.000003 0.000001 -0.000002 0.704642 3.039379 -26.123576 0.803730 3.233332 -27.911949 0.758666 3.146942 -27.102384 -0.000004 0.000002 0.000004 0.742652 3.115664 -26.858189 1.478264 4.267696 -38.196183 1.335113 4.079690 -36.229540 -0.000000 -0.000000 -0.000001 2.720233 6.830876 -27.790658 1.481101 0.185209 -38.428697 0.844402 3.308873 -28.625004 0.000002 0.000003 0.000001 0.477897 -2.717889 6.166505 0.000000 0.000000 0.000000 4.034792 19.963350 34.183246 0.000003 9.601053 -0.000007 23.696938 18.707320 -11.098287 -1.994085 -12.184465 -7.943364 5.444938 -17.291981 -0.860849 -0.502643 -8.507750 -2.994148 0.000003 -0.000003 -0.000001 0.496368 -2.584479 21.739579 1.040593 -3.664079 31.699813 0.511056 -2.621014 22.063258 -0.000000 0.000001 -0.000002 0.569957 -2.761708 23.317436 1.074172 -3.717775 32.221281 1.050729 -3.680386 31.857754 -0.000001 -0.000003 0.000001 0.462907 -2.499016 20.985051 1.445572 -4.249031 37.563827 0.726424 -3.099143 26.377214 -0.000000 -0.000001 -0.000003 0.180809 -1.578365 13.067969 1.485678 -4.300540 38.101739 0.856216 -3.347763 28.685230 0.000004 0.000003 -0.000002 -12.320597 9.522177 5.831884 21.812887 -1.812588 1.736479 -10.693468 0.825119 -5.005695 -0.000019 -0.000000 0.000000 -0.000000 -0.000000 -0.000000 -5.574847 -5.980029 -6.907403 20.144304 -8.349347 7.575411 -13.789800 -17.540851 1.517085 -0.362838 -0.000015 0.000001 -0.000000 -0.000000 0.000000 
-0.289655 93.552269 -6.611626 0.922943 3.133819 -0.264289 18.528652 -0.924811 -1.485299 1.234591 -0.113719 0.407003 0.000000 0.000000 0.000000 1.234484 -0.097862 0.408096 17.433470 0.332750 1.495481 10.826403 -2.735813 4.630161 -0.000002 0.000000 -0.000000 11.198578 -37.286044 -0.490903 0.000000 0.000000 0.000000 12.400875 20.323668 -52.234466 -0.000010 -34.431503 0.000004 0.428609 -2.925360 3.387639 -1.708902 11.916059 7.382929 4.613905 16.205073 1.361379 0.155770 9.814997 3.327215 0.000001 0.000001 0.000003 0.526290 2.644751 -22.505181 0.860864 3.338770 -28.908673 0.214536 1.708721 -14.311623 0.000000 0.000001 -0.000003 0.692331 3.014041 -25.875632 0.783533 3.194954 -27.551687 0.736328 3.102975 -26.692615 -0.000001 -0.000002 0.000001 0.738401 3.107111 -26.747612 1.455587 4.238799 -37.890488 1.308561 4.043298 -35.854757 -0.000000 0.000002 0.000000 2.724820 6.836781 -27.806706 1.456344 0.153830 -38.097484 0.810161 3.245437 -28.025861 -0.000000 -0.000002 0.000003 0.469250 -2.842996 6.172176 0.000000 0.000000 0.000000 4.088874 19.748911 34.584793 -0.000003 9.610782 -0.000022 24.143327 18.313629 -11.302973 -1.993822 -12.184339 -7.943344 5.445113 -17.291923 -0.861172 -0.502646 -8.507751 -2.994144 0.000004 -0.000002 -0.000001 0.529401 -2.665752 22.460835 1.057839 -3.691789 31.968530 0.518067 -2.638190 22.215766 -0.000001 0.000001 0.000000 0.608142 -2.848552 24.097541 1.098619 -3.756187 32.596316 1.061383 -3.697446 32.023475 -0.000001 0.000000 0.000001 0.504143 -2.603914 21.911605 1.480789 -4.294304 38.036531 0.740283 -3.126913 26.632490 0.000001 -0.000002 0.000001 0.215111 -1.719476 14.260254 1.529381 -4.355519 38.680850 0.875038 -3.381874 29.005911 -0.000000 -0.000000 0.000004 -12.157156 9.560048 5.818470 21.712171 -1.824518 1.720541 -10.708249 0.825686 -4.997204 -0.000056 -0.000001 -0.000005 0.000000 0.000000 -0.000000 -5.428256 -5.976273 -6.903904 20.046851 -8.355512 7.550790 -13.784507 -17.540158 1.543051 -0.370033 -0.000017 0.000001 0.000000 0.000002 0.000000 
-0.281549 93.570946 -6.551125 0.876839 3.136939 -0.239830 18.315057 -0.886959 -1.528642 1.237615 -0.108356 0.414652 0.000000 0.000000 0.000000 1.237493 -0.092382 0.415663 17.402053 0.082498 1.541182 10.840834 -3.516359 4.995897 -0.000003 -0.000000 0.000000 10.974295 -37.134195 -0.580666 0.000000 0.000000 0.000000 12.738211 20.288157 -52.482473 -0.000010 -34.226785 -0.000011 -0.546862 -4.175033 3.785998 -1.708905 11.916058 7.382932 4.613904 16.205069 1.361383 0.155764 9.814994 3.327217 -0.000005 -0.000001 0.000000 0.510253 2.605770 -22.155190 0.848793 3.316858 -28.700762 0.206146 1.675479 -14.027322 -0.000001 -0.000002 0.000002 0.684161 2.997147 -25.712946 0.771537 3.171921 -27.335827 0.723477 3.077310 -26.454175 0.000003 0.000004 0.000003 0.743595 3.117392 -26.827851 1.447909 4.228932 -37.786280 1.295822 4.025635 -35.673532 -0.000002 0.000002 -0.000001 2.760618 6.859895 -28.095800 1.456526 0.154048 -38.099768 0.797188 3.220982 -27.795865 -0.000000 -0.000003 0.000001 0.465136 -2.927774 6.199370 0.000000 0.000000 0.000000 3.910888 19.563077 35.227459 0.000005 9.562529 0.000003 24.620406 18.025274 -11.454634 -1.993589 -12.184204 -7.943309 5.445226 -17.291893 -0.861493 -0.502643 -8.507751 -2.994149 0.000004 0.000000 0.000001 0.551013 -2.717406 22.921275 1.069501 -3.710370 32.149120 0.523376 -2.651144 22.330848 0.000005 0.000001 -0.000001 0.641218 -2.921308 24.754938 1.120461 -3.790065 32.928240 1.071934 -3.714222 32.186689 0.000000 0.000002 -0.000002 0.549803 -2.714568 22.895784 1.520025 -4.343850 38.557518 0.757541 -3.161051 26.947268 0.000003 0.000003 -0.000005 0.260329 -1.888402 15.696803 1.584938 -4.423837 39.406643 0.901143 -3.428448 29.445352 0.000005 0.000001 0.000003 -12.017829 9.581419 5.787171 21.637623 -1.835319 1.714142 -10.723490 0.826249 -4.992189 -0.000031 0.000000 0.000000 0.000000 0.000000 -0.000000 -5.307573 -5.989424 -6.922208 19.991371 -8.352626 7.535562 -13.798755 -17.538259 1.565648 -0.365543 -0.000009 -0.000000 -0.000000 -0.000000 -0.000000 
